HIERARCHY
ROOT joint_0
{
	OFFSET 0.000000 0.000000 0.000000
	CHANNELS 6 Xposition Yposition Zposition Zrotation Yrotation Xrotation 
	JOINT joint_1
	{
		OFFSET 13.542969 -4.074463 123.986084
		CHANNELS 3 Zrotation Yrotation Xrotation
		JOINT joint_2
		{
			OFFSET -0.108154 -3.018066 113.860962
			CHANNELS 3 Zrotation Yrotation Xrotation
			JOINT joint_3
			{
				OFFSET -1.139648 -3.876465 113.702026
				CHANNELS 3 Zrotation Yrotation Xrotation
				JOINT joint_4
				{
					OFFSET 13.593506 -8.582153 160.876953
					CHANNELS 3 Zrotation Yrotation Xrotation
					JOINT joint_5
					{
						OFFSET 26.480957 -11.565674 94.427979
						CHANNELS 3 Zrotation Yrotation Xrotation
						End Site
						{
							OFFSET 0.000000 0.000000 0.000000
						}
					}
				}
				JOINT joint_6
				{
					OFFSET 3.003662 -39.658691 88.713989
					CHANNELS 3 Zrotation Yrotation Xrotation
					JOINT joint_7
					{
						OFFSET -25.253906 -162.506348 -28.477051
						CHANNELS 3 Zrotation Yrotation Xrotation
						JOINT joint_8
						{
							OFFSET 23.083252 -8.502686 -295.281982
							CHANNELS 3 Zrotation Yrotation Xrotation
							JOINT joint_9
							{
								OFFSET 20.205566 -32.167908 -263.458008
								CHANNELS 3 Zrotation Yrotation Xrotation
								End Site
								{
									OFFSET 0.000000 0.000000 0.000000
								}
							}
						}
					}
				}
				JOINT joint_10
				{
					OFFSET 12.313232 30.012939 91.642944
					CHANNELS 3 Zrotation Yrotation Xrotation
					JOINT joint_11
					{
						OFFSET 31.960205 162.667969 -19.398926
						CHANNELS 3 Zrotation Yrotation Xrotation
						JOINT joint_12
						{
							OFFSET 51.325195 40.249023 -289.038086
							CHANNELS 3 Zrotation Yrotation Xrotation
							JOINT joint_13
							{
								OFFSET 70.170898 60.433594 -249.556030
								CHANNELS 3 Zrotation Yrotation Xrotation
								End Site
								{
									OFFSET 0.000000 0.000000 0.000000
								}
							}
						}
					}
				}
			}
		}
	}
	JOINT joint_14
	{
		OFFSET -15.093262 -91.803833 -113.326904
		CHANNELS 3 Zrotation Yrotation Xrotation
		JOINT joint_15
		{
			OFFSET 2.288818 -12.306763 -494.206055
			CHANNELS 3 Zrotation Yrotation Xrotation
			JOINT joint_16
			{
				OFFSET -54.691650 0.383423 -424.447006
				CHANNELS 3 Zrotation Yrotation Xrotation
				JOINT joint_17
				{
					OFFSET 202.154297 -21.791382 -80.181999
					CHANNELS 3 Zrotation Yrotation Xrotation
					End Site
					{
						OFFSET 0.000000 0.000000 0.000000
					}
				}
			}
		}
	}
	JOINT joint_18
	{
		OFFSET 10.704102 91.957275 -113.713013
		CHANNELS 3 Zrotation Yrotation Xrotation
		JOINT joint_19
		{
			OFFSET 0.427490 1.374878 -494.359924
			CHANNELS 3 Zrotation Yrotation Xrotation
			JOINT joint_20
			{
				OFFSET -53.071777 2.769531 -424.643028
				CHANNELS 3 Zrotation Yrotation Xrotation
				JOINT joint_21
				{
					OFFSET 200.264648 -28.253052 -82.862999
					CHANNELS 3 Zrotation Yrotation Xrotation
					End Site
					{
						OFFSET 0.000000 0.000000 0.000000
					}
				}
			}
		}
	}
}
MOTION
Frames: 9
Frame Time: 0.016667
-2876.957031 1291.156860 1142.546021 4.213907 -2.663368 0.962529 -0.574691 -0.043959 -0.962521 -0.570312 0.018912 0.138787 -0.573607 0.011415 -0.147760 1.014084 3.011200 -2.336093 0.000000 0.000000 0.000000 -0.299814 0.282228 1.652173 -0.258313 1.179421 -4.181263 0.403016 -1.273193 3.333214 0.000000 0.000000 0.000000 -1.091161 0.790534 -1.599289 0.378851 0.714093 -0.325953 0.857281 1.692972 1.605323 0.000000 0.000000 0.000000 -1.738695 3.203703 -0.673109 -1.641108 0.402663 -0.152222 -1.588760 0.555817 -0.568965 0.000000 0.000000 0.000000 -0.425683 1.060420 4.483325 -0.403380 1.163623 -0.394523 -0.472913 2.966845 0.224007 0.000000 0.000000 0.000000 
-2877.063477 1291.086548 1142.536011 4.201158 -2.666460 0.966200 -0.574986 -0.046434 -0.964180 -0.570554 0.019085 0.138393 -0.573876 0.010825 -0.148056 1.013930 3.009568 -2.336043 0.000000 0.000000 0.000000 -0.293212 0.292254 1.658709 -0.256656 1.188852 -4.165332 0.403135 -1.279407 3.324133 0.000000 0.000000 0.000000 -1.086399 0.795602 -1.608856 0.378111 0.718972 -0.338040 0.859239 1.694351 1.611133 0.000000 0.000000 0.000000 -1.733621 3.180109 -0.676928 -1.637735 0.441492 -0.145265 -1.584679 0.550590 -0.567912 0.000000 0.000000 0.000000 -0.421890 1.070218 4.483753 -0.399658 1.141031 -0.395603 -0.469479 2.977675 0.226942 0.000000 0.000000 0.000000 
-2877.164795 1291.016479 1142.526978 4.190395 -2.669006 0.970058 -0.575680 -0.050246 -0.967353 -0.571153 0.019727 0.139641 -0.574543 0.010150 -0.148678 1.013950 3.008977 -2.336200 0.000000 0.000000 0.000000 -0.288750 0.302280 1.665129 -0.255088 1.198129 -4.150834 0.403511 -1.286008 3.317910 0.000000 0.000000 0.000000 -1.083540 0.800451 -1.618917 0.377716 0.723355 -0.347849 0.861208 1.695831 1.616890 0.000000 0.000000 0.000000 -1.729078 3.157556 -0.680496 -1.634801 0.477751 -0.139183 -1.581141 0.547167 -0.566880 0.000000 0.000000 0.000000 -0.418961 1.079476 4.483481 -0.396802 1.118259 -0.395725 -0.466751 2.988374 0.229570 0.000000 0.000000 0.000000 
-2877.256348 1290.949463 1142.519043 4.183593 -2.671851 0.973866 -0.577757 -0.054281 -0.969632 -0.573151 0.019693 0.139343 -0.576542 0.010027 -0.148680 1.014535 3.009851 -2.337774 0.000000 0.000000 0.000000 -0.285836 0.312557 1.670901 -0.253557 1.207537 -4.137930 0.404415 -1.293910 3.316761 0.000000 0.000000 0.000000 -1.080797 0.804904 -1.629814 0.377605 0.726835 -0.355676 0.863335 1.697286 1.623240 0.000000 0.000000 0.000000 -1.725714 3.139521 -0.683124 -1.632741 0.507237 -0.135206 -1.578716 0.546033 -0.566042 0.000000 0.000000 0.000000 -0.417559 1.089219 4.482138 -0.395467 1.095118 -0.393894 -0.465227 2.998969 0.231690 0.000000 0.000000 0.000000 
-2877.343994 1290.883667 1142.510986 4.179054 -2.674636 0.977490 -0.580463 -0.058598 -0.972074 -0.575757 0.020147 0.139842 -0.579201 0.009318 -0.149214 1.015632 3.011304 -2.340962 0.000000 0.000000 0.000000 -0.283689 0.323133 1.676397 -0.252038 1.217246 -4.126163 0.405668 -1.302943 3.318533 0.000000 0.000000 0.000000 -1.078667 0.808725 -1.640747 0.377755 0.729491 -0.362028 0.865743 1.699679 1.629794 0.000000 0.000000 0.000000 -1.722949 3.122873 -0.685199 -1.631185 0.534447 -0.132153 -1.576900 0.546479 -0.565274 0.000000 0.000000 0.000000 -0.417081 1.098901 4.480420 -0.395055 1.071739 -0.391121 -0.464463 3.009431 0.233480 0.000000 0.000000 0.000000 
-2877.435547 1290.815552 1142.501953 4.174184 -2.677135 0.981427 -0.582915 -0.061955 -0.975709 -0.578161 0.019177 0.140679 -0.581565 0.009896 -0.150093 1.016197 3.011431 -2.342780 0.000000 0.000000 0.000000 -0.281115 0.332991 1.683166 -0.250541 1.226516 -4.114431 0.406712 -1.311527 3.318206 0.000000 0.000000 0.000000 -1.077382 0.812033 -1.649953 0.377653 0.732010 -0.368187 0.867479 1.700094 1.635627 0.000000 0.000000 0.000000 -1.720271 3.102774 -0.688562 -1.629958 0.567365 -0.127023 -1.575137 0.546089 -0.564617 0.000000 0.000000 0.000000 -0.416558 1.107715 4.478903 -0.394595 1.049118 -0.388969 -0.463732 3.019767 0.235238 0.000000 0.000000 0.000000 
-2877.535645 1290.742676 1142.489990 4.168032 -2.679298 0.985403 -0.584950 -0.065533 -0.979948 -0.580073 0.020829 0.140985 -0.583618 0.008034 -0.150920 1.016307 3.011607 -2.342921 0.000000 0.000000 0.000000 -0.276954 0.342865 1.690707 -0.248923 1.235986 -4.101437 0.407522 -1.320247 3.314483 0.000000 0.000000 0.000000 -1.076353 0.814953 -1.656241 0.377363 0.734846 -0.374959 0.868912 1.699501 1.641235 0.000000 0.000000 0.000000 -1.717124 3.076150 -0.693564 -1.628732 0.611478 -0.118622 -1.572961 0.543606 -0.564021 0.000000 0.000000 0.000000 -0.415771 1.115450 4.478527 -0.393868 1.027240 -0.388389 -0.462941 3.029822 0.236981 0.000000 0.000000 0.000000 
-2877.639404 1290.666382 1142.477051 4.162281 -2.681017 0.989803 -0.587367 -0.068574 -0.985580 -0.582399 0.021545 0.140788 -0.586013 0.006765 -0.150832 1.016545 3.010939 -2.343871 0.000000 0.000000 0.000000 -0.270846 0.352234 1.699036 -0.247318 1.245425 -4.088540 0.408185 -1.328835 3.309009 0.000000 0.000000 0.000000 -1.074777 0.817577 -1.661331 0.376920 0.737533 -0.381671 0.870002 1.697456 1.646856 0.000000 0.000000 0.000000 -1.714258 3.046012 -0.699865 -1.628032 0.661262 -0.108329 -1.571050 0.540543 -0.563592 0.000000 0.000000 0.000000 -0.415275 1.122099 4.478289 -0.393428 1.005916 -0.388503 -0.462512 3.039743 0.238558 0.000000 0.000000 0.000000 
-2877.739746 1290.594604 1142.462036 4.156296 -2.682353 0.994484 -0.588786 -0.072264 -0.991745 -0.583689 0.023136 0.141182 -0.587433 0.005292 -0.151992 1.016280 3.010854 -2.342782 0.000000 0.000000 0.000000 -0.265561 0.361753 1.709089 -0.245807 1.255308 -4.076621 0.408763 -1.337394 3.302481 0.000000 0.000000 0.000000 -1.073820 0.819394 -1.665702 0.376122 0.739767 -0.389309 0.870741 1.695740 1.650944 0.000000 0.000000 0.000000 -1.711692 3.016542 -0.707043 -1.627550 0.709023 -0.097050 -1.569230 0.538121 -0.563131 0.000000 0.000000 0.000000 -0.414941 1.128444 4.477130 -0.393160 0.985049 -0.387651 -0.462121 3.048875 0.240008 0.000000 0.000000 0.000000 
